<mxfile host="Electron" agent="Mozilla/5.0 (Windows NT 10.0; Win64; x64) AppleWebKit/537.36 (KHTML, like Gecko) draw.io/26.1.1 Chrome/132.0.6834.210 Electron/34.3.3 Safari/537.36" version="26.1.1">
  <diagram id="eks-1" name="Deployment (EKS)">
    <mxGraphModel dx="780" dy="496" grid="1" gridSize="10" guides="1" tooltips="1" connect="1" arrows="1" fold="1" page="1" pageScale="1" pageWidth="1100" pageHeight="850" math="0" shadow="0">
      <root>
        <mxCell id="0" />
        <mxCell id="1" parent="0" />
        <mxCell id="aws" value="AWS" style="rounded=1;whiteSpace=wrap;html=1;fillColor=#ffffff;strokeColor=#000000;strokeWidth=1.2;dashed=1;" parent="1" vertex="1">
          <mxGeometry x="20" y="20" width="760" height="420" as="geometry" />
        </mxCell>
        <mxCell id="vpc" value="VPC" style="rounded=1;whiteSpace=wrap;html=1;fillColor=#ffffff;strokeColor=#000000;strokeWidth=1.2;dashed=1;" parent="1" vertex="1">
          <mxGeometry x="40" y="40" width="720" height="380" as="geometry" />
        </mxCell>
        <mxCell id="eks" value="EKS Cluster" style="rounded=1;whiteSpace=wrap;html=1;fillColor=#f5f5f5;strokeColor=#666666;strokeWidth=1.2;dashed=1;" parent="1" vertex="1">
          <mxGeometry x="60" y="80" width="500" height="320" as="geometry" />
        </mxCell>
        <mxCell id="ns" value="Namespace: drivesale" style="rounded=1;whiteSpace=wrap;html=1;fillColor=#f8faff;strokeColor=#6c8ebf;strokeWidth=1.2;dashed=1;" parent="1" vertex="1">
          <mxGeometry x="80" y="110" width="460" height="280" as="geometry" />
        </mxCell>
        <mxCell id="alb" value="ALB (Ingress)" style="rounded=1;whiteSpace=wrap;html=1;fillColor=#fff2cc;strokeColor=#d6b656;strokeWidth=1.2;" parent="1" vertex="1">
          <mxGeometry x="600" y="120" width="140" height="50" as="geometry" />
        </mxCell>
        <mxCell id="svc" value="Service (ClusterIP)" style="rounded=1;whiteSpace=wrap;html=1;fillColor=#dae8fc;strokeColor=#6c8ebf;strokeWidth=1.2;" parent="1" vertex="1">
          <mxGeometry x="120" y="150" width="160" height="50" as="geometry" />
        </mxCell>
        <mxCell id="dep" value="Deployment: drivesale-api" style="rounded=1;whiteSpace=wrap;html=1;fillColor=#dae8fc;strokeColor=#6c8ebf;strokeWidth=1.2;" parent="1" vertex="1">
          <mxGeometry x="320" y="150" width="200" height="50" as="geometry" />
        </mxCell>
        <mxCell id="pods" value="Pods xN" style="rounded=1;whiteSpace=wrap;html=1;fillColor=#dae8fc;strokeColor=#6c8ebf;strokeWidth=1.2;" parent="1" vertex="1">
          <mxGeometry x="360" y="220" width="120" height="50" as="geometry" />
        </mxCell>
        <mxCell id="cm" value="ConfigMap" style="rounded=1;whiteSpace=wrap;html=1;fillColor=#ffffff;strokeColor=#6c8ebf;strokeWidth=1.2;dashed=1;" parent="1" vertex="1">
          <mxGeometry x="120" y="230" width="120" height="40" as="geometry" />
        </mxCell>
        <mxCell id="sec" value="Secret" style="rounded=1;whiteSpace=wrap;html=1;fillColor=#ffffff;strokeColor=#6c8ebf;strokeWidth=1.2;dashed=1;" parent="1" vertex="1">
          <mxGeometry x="120" y="280" width="120" height="40" as="geometry" />
        </mxCell>
        <mxCell id="rds" value="Postgres" style="shape=cylinder;whiteSpace=wrap;html=1;boundedLbl=1;fillColor=#f5f5f5;strokeColor=#666666;strokeWidth=1.2;" parent="1" vertex="1">
          <mxGeometry x="600" y="320" width="140" height="60" as="geometry" />
        </mxCell>
        <mxCell id="pay" value="Gateway de Pagamento" style="rounded=1;whiteSpace=wrap;html=1;fillColor=#ffe6cc;strokeColor=#d79b00;strokeWidth=1.2;" parent="1" vertex="1">
          <mxGeometry x="860" y="180" width="200" height="50" as="geometry" />
        </mxCell>
        <mxCell id="e1" value="HTTP" style="endArrow=block;html=1;strokeWidth=1.4;" parent="1" source="alb" target="svc" edge="1">
          <mxGeometry relative="1" as="geometry" />
        </mxCell>
        <mxCell id="e2" value="K8s Service" style="endArrow=block;html=1;strokeWidth=1.4;" parent="1" source="svc" target="dep" edge="1">
          <mxGeometry relative="1" as="geometry" />
        </mxCell>
        <mxCell id="e3" value="Pods" style="endArrow=block;html=1;strokeWidth=1.4;" parent="1" source="dep" target="pods" edge="1">
          <mxGeometry relative="1" as="geometry" />
        </mxCell>
        <mxCell id="e4" value="SQL" style="endArrow=block;html=1;strokeWidth=1.4;" parent="1" source="pods" target="rds" edge="1">
          <mxGeometry relative="1" as="geometry" />
        </mxCell>
        <mxCell id="e5" value="API Pagamento" style="endArrow=block;html=1;strokeWidth=1.4;" parent="1" source="pods" target="pay" edge="1">
          <mxGeometry relative="1" as="geometry" />
        </mxCell>
      </root>
    </mxGraphModel>
  </diagram>
</mxfile>
